<?xml version="1.0" encoding="UTF-8"?>
<svg version="1.1" xmlns="http://www.w3.org/2000/svg" width="512" height="512">
<path d="M0 0 C7.91796123 6.13577574 14.73549242 13.77803456 21.72546387 20.91989136 C23.4893256 22.70029081 25.25429164 24.47959694 27.02038574 26.25778198 C40.01009559 39.3824995 40.01009559 39.3824995 44.36096191 44.443573 C48.51741804 49.25564125 53.02209148 53.69756277 57.53796387 58.16989136 C58.44369141 59.07183228 59.34941895 59.97377319 60.28259277 60.90304565 C63.15695956 63.76527699 66.03443327 66.62434938 68.91296387 69.48239136 C72.70771724 73.25013468 76.49877768 77.02154681 80.28796387 80.79489136 C81.14857422 81.64720337 82.00918457 82.49951538 82.89587402 83.37765503 C86.51579647 86.98295513 90.06897308 90.59266892 93.39929199 94.46871948 C97.60218262 99.35778391 102.1786009 103.85357816 106.75671387 108.38864136 C108.17488037 109.80102068 109.59304394 111.21340297 111.01103973 112.62595367 C113.47619518 115.08026637 115.94466896 117.53123669 118.41296387 119.98239136 C121.36282018 122.91176339 124.31204226 125.84175421 127.25732422 128.77572632 C129.08364816 130.59459749 130.91221748 132.41121788 132.7434082 134.22518921 C137.03595099 138.50080703 141.14491158 142.84273263 145.09228516 147.43685913 C148.79577771 151.5977324 152.80077859 155.46990528 156.75671387 159.38864136 C158.17488037 160.80102068 159.59304394 162.21340297 161.01103973 163.62595367 C163.47619518 166.08026637 165.94466896 168.53123669 168.41296387 170.98239136 C171.36282018 173.91176339 174.31204226 176.84175421 177.25732422 179.77572632 C179.08364816 181.59459749 180.91221748 183.41121788 182.7434082 185.22518921 C187.14083899 189.60528147 191.39536128 194.03899969 195.42260742 198.76327515 C196.90822434 200.47692435 198.46037207 202.10365864 200.03796387 203.73239136 C207.05849816 212.01398677 209.45966675 222.57797883 208.72546387 233.19332886 C207.35033677 243.1916488 202.63093537 253.76362152 194.91296387 260.48239136 C186.48146808 266.65963306 178.32511422 269.56908956 167.91296387 269.48239136 C167.91572925 270.27531208 167.91849463 271.0682328 167.9213438 271.88518143 C167.98772046 291.21685467 168.03730117 310.54850504 168.06840038 329.8802681 C168.08384112 339.22912958 168.10487699 348.57791478 168.13928223 357.92672729 C168.16927037 366.07921488 168.18855915 374.2316472 168.19522935 382.38418841 C168.19912572 386.69721748 168.20822391 391.01008851 168.23015404 395.32306671 C168.25066829 399.39092742 168.25676782 403.45856647 168.25228691 407.526474 C168.25310548 409.01144876 168.25898159 410.4964317 168.27058029 411.98136139 C168.40312544 429.84169923 164.31764592 443.74312516 151.81921387 456.90036011 C139.71369592 467.65539689 126.4960001 470.96733604 110.59265137 470.77536011 C109.23931351 470.76975113 107.88596947 470.7654872 106.53262329 470.76249695 C103.00458369 470.75115032 99.47692628 470.72177389 95.94903564 470.68838501 C92.33550178 470.65746172 88.72190497 470.64394452 85.10827637 470.62887573 C78.04301772 470.59689196 70.97801601 470.54582235 63.91296387 470.48239136 C63.90799865 469.13978099 63.90799865 469.13978099 63.90293312 467.77004719 C63.82157259 445.95107615 63.72943772 424.13217354 63.62543678 402.31329823 C63.57539942 391.76168568 63.52895573 381.21008057 63.49108887 370.65841675 C63.45805966 361.45735026 63.4181687 352.25634293 63.37017381 343.0553419 C63.3450171 338.18735227 63.32320433 333.31940134 63.3096199 328.45136452 C63.29670066 323.8606556 63.27454203 319.27008012 63.24558067 314.67944527 C63.2365814 313.00302329 63.23083277 311.32657988 63.22875023 309.65013504 C63.20096857 290.66709845 61.73331683 274.69593694 48.03405762 260.54098511 C36.18660198 249.45942559 21.87658757 247.32876461 6.28503418 247.33712769 C5.36825897 247.33376907 4.45148376 247.33041046 3.50692749 247.32695007 C0.50163384 247.31751736 -2.50360363 247.31550081 -5.50891113 247.31442261 C-7.61724876 247.31120456 -9.72558617 247.30784008 -11.83392334 247.30433655 C-16.24512245 247.29836436 -20.65630202 247.29649467 -25.06750488 247.29708862 C-30.69008899 247.2971901 -36.31254642 247.28354382 -41.93510056 247.26631641 C-46.28827477 247.25513892 -50.64141893 247.25317118 -54.99460602 247.25369835 C-57.0660165 247.25252666 -59.13742797 247.24815103 -61.20882416 247.24036598 C-81.34235895 247.17178171 -98.78223434 247.60591316 -114.02844238 262.36129761 C-127.12791781 276.36613635 -127.22889929 293.60527746 -127.2923584 311.66036987 C-127.30195008 313.39566779 -127.31196089 315.13096343 -127.32235718 316.86625671 C-127.34927266 321.55564223 -127.3703541 326.24503766 -127.39035916 330.93445706 C-127.4123016 335.84318912 -127.43964971 340.75189105 -127.46641541 345.66059875 C-127.51623104 354.94634913 -127.56121094 364.23211633 -127.60443777 373.51789945 C-127.65390554 384.09350123 -127.70878815 394.66907276 -127.76411736 405.24464524 C-127.87776646 426.9905324 -127.98464235 448.73644847 -128.08703613 470.48239136 C-135.83310388 470.5756767 -143.5790364 470.64644962 -151.32552719 470.68964005 C-154.92380575 470.71038487 -158.52169588 470.73845697 -162.11975098 470.78414917 C-165.60167424 470.82808244 -169.08322744 470.85162658 -172.5654068 470.86190033 C-174.51941653 470.87272824 -176.47328043 470.90387571 -178.42706299 470.93557739 C-192.73830813 470.93912042 -206.28617734 466.11134363 -216.89953613 456.23239136 C-227.5452023 444.60005369 -232.1257931 431.2272739 -232.40344238 415.75192261 C-232.43468201 414.22946678 -232.43468201 414.22946678 -232.46655273 412.67625427 C-232.53399722 409.21588643 -232.59250431 405.75544582 -232.64953613 402.29489136 C-232.67071503 401.09205505 -232.69189392 399.88921875 -232.7137146 398.64993286 C-233.44878663 355.6010811 -233.17403185 312.53560751 -233.08703613 269.48239136 C-233.84103699 269.42411667 -234.59503784 269.36584198 -235.37188721 269.30580139 C-236.85655487 269.18281425 -236.85655487 269.18281425 -238.37121582 269.05734253 C-239.35209167 268.97844284 -240.33296753 268.89954315 -241.34356689 268.81825256 C-249.3045799 267.84364881 -257.84281778 262.53341254 -263.08703613 256.48239136 C-270.63336145 245.86031259 -274.59667877 234.63415381 -272.52453613 221.48239136 C-270.07287269 211.48345024 -265.29137499 203.94783382 -257.74719238 197.02926636 C-255.68194152 195.05196304 -253.87929409 193.11103631 -252.03601074 190.94235229 C-247.66687056 185.92112338 -242.97001685 181.25842479 -238.24328613 176.57614136 C-236.82511963 175.16376203 -235.40695606 173.75137975 -233.98896027 172.33882904 C-231.02637168 169.38927112 -228.05919593 166.44432824 -225.09283447 163.49856567 C-222.64122582 161.06362029 -220.19066282 158.62764319 -217.74267578 156.1890564 C-215.91635184 154.37018522 -214.08778252 152.55356484 -212.2565918 150.73959351 C-208.58157936 147.07907119 -204.96828067 143.41763206 -201.58703613 139.48239136 C-197.38956067 134.5971853 -192.81679787 130.10664659 -188.24328613 125.57614136 C-186.82511963 124.16376203 -185.40695606 122.75137975 -183.98896027 121.33882904 C-181.02637168 118.38927112 -178.05919593 115.44432824 -175.09283447 112.49856567 C-172.64122582 110.06362029 -170.19066282 107.62764319 -167.74267578 105.1890564 C-165.91635184 103.37018522 -164.08778252 101.55356484 -162.2565918 99.73959351 C-157.9596974 95.45964123 -153.84566465 91.11337648 -149.89428711 86.51449585 C-146.26500114 82.43366346 -142.3409281 78.63638154 -138.46203613 74.79489136 C-137.55630859 73.89295044 -136.65058105 72.99100952 -135.71740723 72.06173706 C-132.35782307 68.71633692 -128.99372351 65.37550744 -125.62927246 62.03500366 C-122.32069263 58.74947336 -119.01601132 55.46005345 -115.71203613 52.16989136 C-114.85142578 51.31757935 -113.99081543 50.46526733 -113.10412598 49.58712769 C-108.82103377 45.32133664 -104.71003203 40.98731429 -100.76998901 36.40356445 C-95.81867939 30.75140215 -90.40848107 25.4970134 -85.11901855 20.16427612 C-83.64288472 18.67158023 -82.17213616 17.17353898 -80.70690918 15.6701355 C-58.76774838 -6.83503842 -29.25039721 -20.25031445 0 0 Z " fill="#5C5AFF" transform="translate(288.0870361328125,25.517608642578125)"/>
<path d="M0 0 C1.04462402 -0.00700928 2.08924805 -0.01401855 3.16552734 -0.02124023 C6.61062381 -0.0388121 10.05489551 -0.02719969 13.5 -0.01367188 C15.8984391 -0.016367 18.29687714 -0.0202496 20.6953125 -0.02526855 C25.71885595 -0.03116254 30.74211467 -0.02260346 35.765625 -0.00390625 C42.20189072 0.01888275 48.63748922 0.00575921 55.07373047 -0.01819611 C60.02544168 -0.03265649 64.97699495 -0.02804688 69.92871094 -0.01768494 C72.30175862 -0.01501834 74.67482068 -0.01828502 77.04785156 -0.02760315 C80.36562028 -0.03777219 83.68231145 -0.02226121 87 0 C88.46832275 -0.01214539 88.46832275 -0.01214539 89.96630859 -0.02453613 C95.62935479 0.04578731 99.1245714 0.56573088 103.5 4.51757812 C107.11701268 9.04634945 108.07666049 12.47898909 107.98101807 18.14852905 C107.98443577 18.89686213 107.98785347 19.64519521 107.99137473 20.41620505 C107.99794118 22.91311892 107.97599915 25.40894761 107.95410156 27.90576172 C107.95297281 29.69972712 107.95360748 31.49369437 107.95587158 33.28765869 C107.95701858 38.15094696 107.93351144 43.01384008 107.90557575 47.87703657 C107.88055985 52.96191876 107.87821994 58.04681015 107.87347412 63.13174438 C107.86104492 72.75769178 107.82822399 82.38345733 107.78807616 92.00932467 C107.73499396 105.01892221 107.71341254 118.02856953 107.69006729 131.03824806 C107.65246261 151.53149428 107.57277135 172.02435675 107.5 192.51757812 C65.26 192.51757812 23.02 192.51757812 -20.5 192.51757812 C-20.66121214 147.11844914 -20.66121214 147.11844914 -20.6953125 128.11523438 C-20.71906047 114.98642742 -20.7470002 101.85772304 -20.80175781 88.72900391 C-20.84161595 79.16803747 -20.86743055 69.60715414 -20.87635398 60.04610693 C-20.88157044 54.98317213 -20.89383762 49.92047506 -20.92292023 44.85761642 C-20.95007308 40.09208471 -20.95844522 35.32688865 -20.95243073 30.56128693 C-20.95353102 28.81255138 -20.9614857 27.0638046 -20.9768219 25.31513596 C-20.99674827 22.92585549 -20.99193024 20.53783928 -20.98101807 18.14852905 C-20.99266943 17.45785351 -21.0043208 16.76717797 -21.01632524 16.05557287 C-20.95531963 11.10780261 -19.55787551 8.34626775 -16.5 4.51757812 C-11.3117541 -0.1683983 -6.64568975 -0.05497052 0 0 Z " fill="#8643FF" transform="translate(212.5,303.482421875)"/>
</svg>
