<?xml version="1.0" encoding="utf-8"?>
<!-- Generator: Adobe Illustrator 28.2.0, SVG Export Plug-In . SVG Version: 6.00 Build 0)  -->
<svg version="1.1" id="Layer_1" xmlns="http://www.w3.org/2000/svg" xmlns:xlink="http://www.w3.org/1999/xlink" x="0px" y="0px"
	 viewBox="0 0 512 512" style="enable-background:new 0 0 512 512;" xml:space="preserve">
<style type="text/css">
	.st0{fill:#5C5AFF;stroke:#FFFFFF;stroke-width:7;stroke-miterlimit:10;}
	.st1{fill:#FFFFFF;}
	.st2{fill:#1FECFF;}
</style>
<path class="st0" d="M288.1,25.5c7.9,6.1,14.7,13.8,21.7,20.9c1.8,1.8,3.5,3.6,5.3,5.3c13,13.1,13,13.1,17.3,18.2
	c4.2,4.8,8.7,9.3,13.2,13.7c0.9,0.9,1.8,1.8,2.7,2.7c2.9,2.9,5.8,5.7,8.6,8.6c3.8,3.8,7.6,7.5,11.4,11.3c0.9,0.9,1.7,1.7,2.6,2.6
	c3.6,3.6,7.2,7.2,10.5,11.1c4.2,4.9,8.8,9.4,13.4,13.9c1.4,1.4,2.8,2.8,4.3,4.2c2.5,2.5,4.9,4.9,7.4,7.4c2.9,2.9,5.9,5.9,8.8,8.8
	c1.8,1.8,3.7,3.6,5.5,5.4c4.3,4.3,8.4,8.6,12.3,13.2c3.7,4.2,7.7,8,11.7,12c1.4,1.4,2.8,2.8,4.3,4.2c2.5,2.5,4.9,4.9,7.4,7.4
	c2.9,2.9,5.9,5.9,8.8,8.8c1.8,1.8,3.7,3.6,5.5,5.4c4.4,4.4,8.7,8.8,12.7,13.5c1.5,1.7,3,3.3,4.6,5c7,8.3,9.4,18.8,8.7,29.5
	c-1.4,10-6.1,20.6-13.8,27.3c-8.4,6.2-16.6,9.1-27,9c0,0.8,0,1.6,0,2.4c0.1,19.3,0.1,38.7,0.1,58c0,9.3,0,18.7,0.1,28
	c0,8.2,0,16.3,0.1,24.5c0,4.3,0,8.6,0,12.9c0,4.1,0,8.1,0,12.2c0,1.5,0,3,0,4.5c0.1,17.9-4,31.8-16.5,44.9
	c-12.1,10.8-25.3,14.1-41.2,13.9c-1.4,0-2.7,0-4.1,0c-3.5,0-7.1,0-10.6-0.1c-3.6,0-7.2,0-10.8-0.1c-7.1,0-14.1-0.1-21.2-0.1
	c0-1.3,0-1.3,0-2.7c-0.1-21.8-0.2-43.6-0.3-65.5c-0.1-10.6-0.1-21.1-0.1-31.7c0-9.2-0.1-18.4-0.1-27.6c0-4.9,0-9.7-0.1-14.6
	c0-4.6,0-9.2-0.1-13.8c0-1.7,0-3.4,0-5c0-19-1.5-35-15.2-49.1c-11.8-11.1-26.2-13.2-41.7-13.2c-0.9,0-1.8,0-2.8,0c-3,0-6,0-9,0
	c-2.1,0-4.2,0-6.3,0c-4.4,0-8.8,0-13.2,0c-5.6,0-11.2,0-16.9,0c-4.4,0-8.7,0-13.1,0c-2.1,0-4.1,0-6.2,0
	c-20.1-0.1-37.6,0.4-52.8,15.1c-13.1,14-13.2,31.2-13.3,49.3c0,1.7,0,3.5,0,5.2c0,4.7,0,9.4-0.1,14.1c0,4.9,0,9.8-0.1,14.7
	c0,9.3-0.1,18.6-0.1,27.9c0,10.6-0.1,21.2-0.2,31.7c-0.1,21.7-0.2,43.5-0.3,65.2c-7.7,0.1-15.5,0.2-23.2,0.2c-3.6,0-7.2,0-10.8,0.1
	c-3.5,0-7,0.1-10.4,0.1c-2,0-3.9,0-5.9,0.1c-14.3,0-27.9-4.8-38.5-14.7c-10.6-11.6-15.2-25-15.5-40.5c0-1.5,0-1.5-0.1-3.1
	c-0.1-3.5-0.1-6.9-0.2-10.4c0-1.2,0-2.4-0.1-3.6c-0.7-43-0.5-86.1-0.4-129.2c-0.8-0.1-1.5-0.1-2.3-0.2c-1.5-0.1-1.5-0.1-3-0.2
	c-1-0.1-2-0.2-3-0.2c-8-1-16.5-6.3-21.7-12.3c-7.5-10.6-11.5-21.8-9.4-35c2.5-10,7.2-17.5,14.8-24.5c2.1-2,3.9-3.9,5.7-6.1
	c4.4-5,9.1-9.7,13.8-14.4c1.4-1.4,2.8-2.8,4.3-4.2c3-2.9,5.9-5.9,8.9-8.8c2.5-2.4,4.9-4.9,7.4-7.3c1.8-1.8,3.7-3.6,5.5-5.4
	c3.7-3.7,7.3-7.3,10.7-11.3c4.2-4.9,8.8-9.4,13.3-13.9c1.4-1.4,2.8-2.8,4.3-4.2c3-2.9,5.9-5.9,8.9-8.8c2.5-2.4,4.9-4.9,7.4-7.3
	c1.8-1.8,3.7-3.6,5.5-5.4c4.3-4.3,8.4-8.6,12.4-13.2c3.6-4.1,7.6-7.9,11.4-11.7c0.9-0.9,1.8-1.8,2.7-2.7c3.4-3.3,6.7-6.7,10.1-10
	c3.3-3.3,6.6-6.6,9.9-9.9c0.9-0.9,1.7-1.7,2.6-2.6c4.3-4.3,8.4-8.6,12.3-13.2c5-5.7,10.4-10.9,15.7-16.2c1.5-1.5,2.9-3,4.4-4.5
	C229.3,18.7,258.8,5.3,288.1,25.5z"/>
<g>
	<path class="st1" d="M194.5,493.5c-0.2-42.9-0.2-43.3-0.2-61.9c0-13.1-0.1-26.3-0.1-39.4c0-9.6-0.1-19.1-0.1-28.7
		c0-5.1,0-10.1,0-15.2c0-4.8,0-9.5,0-14.3c0-1.8,0-3.5,0-5.3c0-2.4,0-4.8,0-7.1l0-2.1c0.1-4.2,1.2-6.5,3.8-9.8
		c3.9-3.5,7.5-3.8,12.4-3.8c0.6,0,1.3,0,2,0l0.5,0l3,0c1.2,0,2.5,0,3.7,0c2.2,0,4.4,0,6.6,0l10.3,0c4,0,8,0,11.9,0c2.3,0,4.7,0,7,0
		c4.1,0,8.2,0,12.3,0c2.2,0,4.5,0,6.7,0c2.7,0,5.4,0,8.1,0l1.6,0c1.8,0,3.7,0,5.5,0l2.2,0c2.6,0,5.2,0,7.7,0l3,0
		c5.1,0.1,8,0.5,11.7,3.8c3,3.8,3.9,6.6,3.8,11.9l0,2.3c0,2.4,0,4.8,0,7.2c0,0,0,3.8,0,5.6c0,4.9,0,9.7-0.1,14.6c0,4.7,0,9.3,0,14
		l0,1.3c0,9.6,0,19.2-0.1,28.9c0,12.2-0.1,24.5-0.1,36.8l0,2.3c0,17.9-0.1,35.9-0.2,53.8l0,5.2H194.5z"/>
	<path class="st2" d="M291.7,308.5c2.6,0,5.2,0,7.8,0l0,0l0,0l2.9,0c5,0.1,7,0.5,9.9,3c2.5,3.3,3.2,5.5,3.1,10.1l0,0.1l0,0.1l0,2.2
		c0,2.5,0,5,0,7.4l0,0v0c0,1.8,0,3.6,0,5.4c0,4.9,0,9.9-0.1,14.6c0,4.6,0,9.2,0,13.8l0,1.5c0,8.4,0,17.3-0.1,28.9
		c-0.1,12.3-0.1,24.9-0.1,37l0,2.1c0,17.6-0.1,35.5-0.2,52.7l0,3.7H197c-0.1-40.4-0.1-41.1-0.2-59.4c0-11.9,0-25.6-0.1-39.4
		c0-9.8-0.1-19.4-0.1-28.7c0-5.9,0-10.7,0-15.2c0-4.6,0-9.3,0-14.3c0-1.8,0-3.5,0-5.3c0-2.5,0-5,0-7.1l0-0.1l0-0.1l0-2
		c0-3.2,0.7-5,3.2-8.1c3.1-2.7,5.8-3,10.6-3c0.6,0,1.3,0,1.9,0l0.3,0l0,0l0,0l0.3,0l2.9,0c1.2,0,2.5,0,3.7,0c2.2,0,4.4,0,6.6,0
		c2.4,0,4.8,0,7.2,0l3.2,0c4,0,7.9,0,11.9,0c2.3,0,4.7,0,7,0c4.1,0,8.2,0,12.3,0c2.2,0,4.4,0,6.7,0c2.7,0,5.4,0,8.2,0l1.6,0
		c1.8,0,3.7,0,5.5,0C290.3,308.5,291,308.5,291.7,308.5 M291.7,303.5c-0.7,0-1.4,0-2.1,0c-1.8,0-3.7,0-5.5,0c-0.5,0-1.1,0-1.6,0
		c-2.7,0-5.4,0-8.2,0c-2.2,0-4.5,0-6.7,0c-4.1,0-8.2,0-12.3,0c-2.3,0-4.7,0-7,0c-4,0-7.9,0-11.9,0c-1.1,0-2.1,0-3.2,0
		c-2.4,0-4.8,0-7.2,0c-2.2,0-4.4,0-6.6,0c-1.2,0-2.5,0-3.7,0c-1.1,0-2.1,0-3.2,0c-0.8,0-1.6,0-2.3,0c-5.5,0-9.6,0.4-14.2,4.5
		c-3.1,3.8-4.5,6.6-4.5,11.5c0,0.7,0,1.4,0,2.1c0,2.4,0,4.8,0,7.2c0,1.7,0,3.5,0,5.2c0,4.8,0,9.5,0,14.3c0,5.1,0,10.1,0,15.2
		c0,9.6,0,19.1,0.1,28.7c0.1,13.1,0.1,26.3,0.1,39.4c0,19,0,19,0.2,64.4c43.5,0,85.8,0,128,0c0.1-20.5,0.2-41,0.2-61.5
		c0-13,0-26,0.1-39c0-9.6,0.1-19.3,0.1-28.9c0-5.1,0-10.2,0-15.3c0-4.9,0.1-9.7,0.1-14.6c0-1.8,0-3.6,0-5.4c0-2.5,0-5,0-7.5
		c0-0.8,0-1.5,0-2.3c0.1-5.7-0.9-9.1-4.5-13.6c-4.4-4-7.9-4.5-13.5-4.5c-1.5,0-1.5,0-3,0C296.9,303.5,294.3,303.5,291.7,303.5
		L291.7,303.5z"/>
</g>
</svg>
