<?xml version="1.0" encoding="UTF-8"?>
<svg id="Layer_2" data-name="Layer 2" xmlns="http://www.w3.org/2000/svg" viewBox="0 0 383.9 383.9">
  <defs>
    <style>
      .cls-1 {
        fill: #95b9f8;
      }

      .cls-1, .cls-2 {
        stroke-width: 0px;
      }

      .cls-2 {
        fill: #2c5edd;
      }
    </style>
  </defs>
  <g id="Layer_1-2" data-name="Layer 1">
    <g>
      <path class="cls-2" d="M0,141.71V38.24c1.3-.92,1-2.46,1.34-3.7C5.34,19.89,14.27,9.51,28.19,3.5c3.25-1.4,6.69-2.35,10.05-3.5,33.99,0,67.98,0,101.97,0,.28.74.96.63,1.55.75,22.05,4.27,37.38,22.66,37.42,45.08.06,29.49.11,58.97-.02,88.46-.11,24.43-19.7,44.67-44.05,44.96-30.36.36-60.72.28-91.08.01-18.47-.16-34.76-12.29-41.22-29.63-.98-2.63-1.05-5.58-2.82-7.92Z"/>
      <path class="cls-2" d="M0,345.66v-103.47c1.32-.72,1.07-2.16,1.36-3.28,5.17-19.94,22.53-34.11,43.04-34.28,30.11-.26,60.23-.3,90.34,0,24.62.25,44.32,20.38,44.43,44.97.13,29.74.1,59.48,0,89.21-.06,18.92-12.04,35.72-29.86,42.23-2.98,1.09-6.06,1.91-9.1,2.86H38.24c-.77-1.28-2.21-.96-3.33-1.26-16.26-4.41-27.13-14.54-32.75-30.41-.77-2.18-.66-4.64-2.16-6.57Z"/>
      <path class="cls-2" d="M344.91,383.9h-101.97c-.65-1.25-1.98-.91-2.98-1.16-21.33-5.46-35.23-23.13-35.25-45.01-.03-29.23-.06-58.46.01-87.7.06-25,19.71-45.16,44.75-45.4,29.98-.29,59.96-.27,89.94.02,16.49.16,28.98,8.01,37.88,21.8,3.43,5.31,4.74,11.37,6.61,17.24v101.97c-1.28.77-.96,2.21-1.26,3.33-4.53,16.72-15.05,27.68-31.46,33.09-2.07.68-4.38.52-6.27,1.82Z"/>
      <path class="cls-1" d="M245.19,0h98.97c.68.66,1.59.61,2.44.78,13.07,2.72,23.35,9.51,30.51,20.89,3.64,5.79,5.33,12.26,6.8,18.81v98.97c-.72.82-.62,1.86-.79,2.83-3.6,20.58-22.26,36.8-43.13,36.93-30.47.2-60.94.22-91.4,0-23.5-.17-43.71-20.53-43.83-44.02-.16-30.22-.25-60.44.05-90.65.14-14.11,6.22-25.75,17.25-34.7C228.82,4.36,236.81,1.74,245.19,0Z"/>
    </g>
  </g>
</svg>