<?xml version="1.0" encoding="utf-8"?>
<!-- Generator: Adobe Illustrator 28.2.0, SVG Export Plug-In . SVG Version: 6.00 Build 0)  -->
<svg version="1.1" id="Layer_2_00000005247284863762885990000017941193309136449202_"
	 xmlns="http://www.w3.org/2000/svg" xmlns:xlink="http://www.w3.org/1999/xlink" x="0px" y="0px" viewBox="0 0 383.9 383.9"
	 style="enable-background:new 0 0 383.9 383.9;" xml:space="preserve">
<style type="text/css">
	.st0{fill:#2C5EDD;}
	.st1{fill:#FFF7FF;}
</style>
<g id="Layer_1-2">
	<g>
		<path class="st0" d="M0,141.7V38.2c1.3-0.9,1-2.5,1.3-3.7c4-14.7,12.9-25,26.9-31c3.2-1.4,6.7-2.3,10.1-3.5c34,0,68,0,102,0
			c0.3,0.7,1,0.6,1.6,0.8c22.1,4.3,37.4,22.7,37.4,45.1c0.1,29.5,0.1,59,0,88.5c-0.1,24.4-19.7,44.7-44.1,45
			c-30.4,0.4-60.7,0.3-91.1,0C25.6,179.1,9.3,167,2.8,149.6C1.8,147,1.8,144,0,141.7L0,141.7z"/>
		<path class="st0" d="M0,345.7V242.2c1.3-0.7,1.1-2.2,1.4-3.3c5.2-19.9,22.5-34.1,43-34.3c30.1-0.3,60.2-0.3,90.3,0
			c24.6,0.2,44.3,20.4,44.4,45c0.1,29.7,0.1,59.5,0,89.2c-0.1,18.9-12,35.7-29.9,42.2c-3,1.1-6.1,1.9-9.1,2.9h-102
			c-0.8-1.3-2.2-1-3.3-1.3c-16.3-4.4-27.1-14.5-32.8-30.4C1.4,350,1.5,347.6,0,345.7L0,345.7z"/>
		<path class="st0" d="M344.9,383.9h-102c-0.6-1.2-2-0.9-3-1.2c-21.3-5.5-35.2-23.1-35.2-45c0-29.2-0.1-58.5,0-87.7
			c0.1-25,19.7-45.2,44.8-45.4c30-0.3,60-0.3,89.9,0c16.5,0.2,29,8,37.9,21.8c3.4,5.3,4.7,11.4,6.6,17.2v102c-1.3,0.8-1,2.2-1.3,3.3
			c-4.5,16.7-15,27.7-31.5,33.1C349.1,382.8,346.8,382.6,344.9,383.9L344.9,383.9z"/>
		<path class="st1" d="M245.2,0h99c0.7,0.7,1.6,0.6,2.4,0.8c13.1,2.7,23.4,9.5,30.5,20.9c3.6,5.8,5.3,12.3,6.8,18.8v99
			c-0.7,0.8-0.6,1.9-0.8,2.8c-3.6,20.6-22.3,36.8-43.1,36.9c-30.5,0.2-60.9,0.2-91.4,0c-23.5-0.2-43.7-20.5-43.8-44
			c-0.2-30.2-0.2-60.4,0.1-90.7c0.1-14.1,6.2-25.8,17.2-34.7C228.8,4.4,236.8,1.7,245.2,0z"/>
	</g>
</g>
</svg>
