<?xml version="1.0" encoding="utf-8"?>
<!-- Generator: Adobe Illustrator 28.2.0, SVG Export Plug-In . SVG Version: 6.00 Build 0)  -->
<svg version="1.1" id="Layer_1" xmlns="http://www.w3.org/2000/svg" xmlns:xlink="http://www.w3.org/1999/xlink" x="0px" y="0px"
	 viewBox="0 0 512 512" style="enable-background:new 0 0 512 512;" xml:space="preserve">
<style type="text/css">
	.st0{fill:url(#SVGID_1_);}
	.st1{fill:#FEFEFE;}
</style>
<linearGradient id="SVGID_1_" gradientUnits="userSpaceOnUse" x1="256.0583" y1="512.3037" x2="256.0583" y2="-0.2988">
	<stop  offset="0" style="stop-color:#6400DE"/>
	<stop  offset="1" style="stop-color:#134AF1"/>
</linearGradient>
<path class="st0" d="M228.8-0.2c1.6,0,1.6,0,3.2,0c5.5,0,11.1,0,16.6,0c4.5,0,9,0,13.5,0C329.8-0.6,404.8,3.4,457,52.1
	c2.1,2,2.1,2,5.1,4.2c4.6,4.1,8.2,8.8,11.9,13.6c0.6,0.7,1.2,1.5,1.7,2.2c17.6,23.5,28.4,55.9,32.3,84.8c0.2,1.5,0.2,1.5,0.4,3.1
	c2.8,21.3,3.8,42.2,3.8,63.6c0,1.2,0,2.4,0,3.7c0,6.5,0,13,0,19.5c0,5.3,0,10.6,0,15.9c0.3,67-0.9,142.4-51.1,193.4
	c-38.8,38.3-92.6,50.1-145.2,54.8c-1,0.1-2,0.2-3,0.3c-10.5,0.8-20.9,0.9-31.4,0.9c-1,0-1.9,0-2.9,0c-5.1,0-10.2,0-15.3,0
	c-4.1,0-8.3,0-12.4,0c-64,0.3-138.5-2.8-189-47.3c-0.9-0.7-1.7-1.5-2.6-2.2c-2.5-2.2-5-4.5-7.4-6.8c-0.7-0.7-1.5-1.3-2.2-2
	C13,419.1,3.7,362.2,1,314c0-0.7-0.1-1.4-0.1-2.1c-1.1-18.3-1.1-36.6-1.1-54.9c0-0.8,0-1.6,0-2.4c0-48.1,0-48.1,2.2-71.5
	c0.1-0.7,0.1-1.4,0.2-2.1C6.4,136.6,18,90.6,50,58c0.8-0.9,1.6-1.7,2.5-2.6C88.1,18.3,141.4,5.6,191,1.3c1.9-0.2,3.8-0.3,5.7-0.5
	C207.4-0.2,218.1-0.2,228.8-0.2z"/>
<path class="st1" d="M250.2,114.2c2.8,1.8,4.1,2.9,5.8,5.8c0.4,3.1,0.4,3.1,0.3,6.7c0,0.7,0,1.3,0,2c0,2.2,0,4.4,0,6.6
	c0,1.5,0,3,0,4.6c0,4,0,8-0.1,12c0,4.1,0,8.2-0.1,12.2c0,8-0.1,16-0.1,24c0.6,0,1.2,0,1.8,0.1c2.7,0.1,5.4,0.2,8.1,0.3
	c0.9,0,1.8,0.1,2.8,0.1c38.7,1.7,77.9,19.2,104.3,47.5c33.7,38.5,45,90.4,45.4,140.4c0,1.3,0,2.6,0,3.9c0,1.2,0,2.4,0,3.6
	c0,1.1,0,2.1,0,3.2c-0.6,4.4-2.6,7-5.6,10.2c-3.7,2.2-6.7,2.4-10.8,1.7c-6.1-2.7-9.6-8.2-13.7-13.4C361.4,352.2,328,332.3,285,327
	c-5.1-0.4-10.1-0.8-15.2-1.1c-1.3-0.1-2.7-0.2-4-0.3c-3.2-0.2-6.5-0.4-9.8-0.6c0,1.2,0,1.2,0,2.5c0.1,7.7,0.1,15.4,0.1,23.1
	c0,4,0,7.9,0.1,11.9c0,3.8,0.1,7.6,0.1,11.5c0,1.5,0,2.9,0,4.4c0,2,0,4.1,0,6.1c0,1.7,0,1.7,0,3.5c-0.4,3.5-1.3,5.3-3.4,8.1
	c-4.4,2.9-7.8,3.8-13,3c-5.9-3.6-10.7-8.5-15.5-13.4c-5.6-5.7-5.6-5.7-11.6-11.1c-4.5-3.8-8.6-8.1-12.8-12.3c-2.9-3-5.9-5.9-9.1-8.5
	c-4.8-4.1-9.1-8.6-13.6-13.1c-3.7-3.7-7.4-7.2-11.3-10.5c-3.8-3.4-7.4-7.2-11-10.8c-3-3-5.9-5.9-9.1-8.6c-4.6-3.9-8.7-8.1-12.9-12.4
	c-3-3-5.9-5.9-9.1-8.6c-4.6-3.8-8.7-8.1-12.8-12.4c-3.2-3.2-6.4-6.3-9.8-9.2c-4.2-3.6-6.4-6.6-7.1-12.1c0.3-6.7,5.1-10.5,9.8-14.8
	c0.6-0.5,1.1-1.1,1.7-1.6c3.2-3,6.4-6,9.6-8.9c3.3-3.1,6.5-6.2,9.7-9.4c2.9-2.9,5.8-5.7,8.9-8.4c3.9-3.4,7.5-7,11.2-10.7
	c4.1-4.2,8.3-8.2,12.8-12c3.2-2.9,6.2-5.9,9.2-9c7.3-7.4,7.3-7.4,10.9-10.4c4.1-3.5,7.8-7.3,11.6-11.1c4.3-4.4,8.6-8.6,13.3-12.6
	c3.8-3.4,7.4-7.2,11-10.8c3.6-3.7,7.3-7.1,11.3-10.5c3.1-2.7,5.9-5.7,8.8-8.7C238.9,112.3,243.9,111.8,250.2,114.2z"/>
</svg>
