<?xml version="1.0" encoding="UTF-8"?>
<svg version="1.1" xmlns="http://www.w3.org/2000/svg" width="512" height="512">
<path d="M0 0 C1.56241362 -0.00424107 1.56241362 -0.00424107 3.15639114 -0.00856781 C8.68401585 -0.02349349 14.21161498 -0.03276108 19.73925781 -0.03710938 C24.24031799 -0.0414686 28.74118374 -0.05527017 33.2421875 -0.078125 C100.96861325 -0.41519924 175.98658836 3.6527914 228.13671875 52.33203125 C230.27537351 54.3594211 230.27537351 54.3594211 233.2265625 56.578125 C237.78344576 60.65023345 241.42604301 65.38391469 245.1640625 70.203125 C245.74027344 70.92886719 246.31648438 71.65460938 246.91015625 72.40234375 C264.4805203 95.87163099 275.33759498 128.26061198 279.1640625 157.203125 C279.36950684 158.73718994 279.36950684 158.73718994 279.57910156 160.30224609 C282.35035387 181.57021262 283.33344962 202.45512813 283.3671875 223.8828125 C283.37001488 225.10764469 283.37284225 226.33247688 283.37575531 227.5944252 C283.3906792 234.09045876 283.39994873 240.58647055 283.40429688 247.08251953 C283.40803392 252.38075258 283.42248822 257.67886285 283.4453125 262.97705078 C283.72828171 329.97249133 282.561142 405.37669716 232.3515625 456.390625 C193.53306258 494.65935941 139.77324513 506.46405351 87.1640625 511.203125 C86.185513 511.29158691 85.2069635 511.38004883 84.19876099 511.47119141 C73.74102316 512.31653052 63.31842842 512.38507554 52.83203125 512.40625 C51.87106348 512.40907738 50.91009571 512.41190475 49.92000771 512.41481781 C44.81800702 512.42972787 39.71603394 512.43900468 34.61401367 512.44335938 C30.47297196 512.44771234 26.33214232 512.46149165 22.19116211 512.484375 C-41.78836351 512.83078222 -116.30223563 509.69475382 -166.8359375 465.203125 C-167.68671875 464.46191406 -168.5375 463.72070312 -169.4140625 462.95703125 C-171.920676 460.73875519 -174.38473784 458.4823808 -176.8359375 456.203125 C-177.57457031 455.53023438 -178.31320313 454.85734375 -179.07421875 454.1640625 C-215.83339715 419.29834089 -225.16746712 362.36599381 -227.8359375 314.203125 C-227.87830536 313.49697052 -227.92067322 312.79081604 -227.96432495 312.06326294 C-229.04440389 293.76544087 -229.03715913 275.46287579 -229.0234375 257.140625 C-229.02317062 256.34299744 -229.02290375 255.54536987 -229.02262878 254.72357178 C-229.00241457 206.60166604 -229.00241457 206.60166604 -226.8359375 183.203125 C-226.77277344 182.5197406 -226.70960938 181.8363562 -226.64453125 181.13226318 C-222.47287131 136.75853107 -210.79415958 90.85208675 -178.8359375 58.203125 C-178.02382812 57.34074219 -177.21171875 56.47835937 -176.375 55.58984375 C-140.75143046 18.5251913 -87.4421488 5.83939518 -37.87922668 1.47135925 C-35.98435616 1.30434615 -34.09015454 1.1293027 -32.19718933 0.94192505 C-21.47527629 -0.02585402 -10.75745674 0.01994047 0 0 Z " fill="#379DF1" transform="translate(228.8359375,-0.203125)"/>
<path d="M0 0 C2.83600435 1.80473004 4.07109805 2.87702448 5.75 5.75 C6.11076355 8.81256104 6.11076355 8.81256104 6.09057617 12.44628906 C6.09101425 13.11011597 6.09145233 13.77394287 6.09190369 14.45788574 C6.08981971 16.64410182 6.06650855 18.8295435 6.04296875 21.015625 C6.03737137 22.5344806 6.03310194 24.05334163 6.03010559 25.57220459 C6.0186679 29.56391432 5.98921027 33.555295 5.95599365 37.546875 C5.9252694 41.62235056 5.91159524 45.69787944 5.89648438 49.7734375 C5.86433928 57.76577577 5.81315624 65.75784691 5.75 73.75 C6.33345688 73.77145584 6.91691376 73.79291168 7.51805115 73.8150177 C10.21936639 73.91818396 12.92018175 74.03131528 15.62109375 74.14453125 C16.53838257 74.17808716 17.45567139 74.21164307 18.40075684 74.24621582 C57.12662861 75.92550192 96.29373928 93.47504896 122.75 121.75 C156.498035 160.28180962 167.79765168 212.12991435 168.125 262.1875 C168.13893799 263.4677002 168.15287598 264.74790039 168.16723633 266.06689453 C168.16103271 267.26040527 168.1548291 268.45391602 168.1484375 269.68359375 C168.14505371 270.73603271 168.14166992 271.78847168 168.13818359 272.87280273 C167.54380521 277.2783054 165.56741105 279.88587975 162.5625 283.0625 C158.90177408 285.25893555 155.86169184 285.50870504 151.75 284.75 C145.63717838 282.01873928 142.14812454 276.54124892 138.07421875 271.39746094 C111.15262755 237.90430139 77.75889991 218.04661675 34.75 212.75 C29.68307964 212.30113368 24.61164047 211.96493894 19.53515625 211.64453125 C18.19011697 211.55629154 16.84510528 211.46763022 15.50012207 211.37854004 C12.25032685 211.16490082 9.00032 210.95547299 5.75 210.75 C5.75999275 211.97362495 5.75999275 211.97362495 5.77018738 213.2219696 C5.83034695 220.91693767 5.87599892 228.61179138 5.90543652 236.3069334 C5.92107957 240.26291134 5.9422927 244.21869463 5.97631836 248.17456055 C6.00896078 251.99359355 6.02686325 255.81243956 6.03463173 259.63160133 C6.04016651 261.08723709 6.05097472 262.54286285 6.06719017 263.99841881 C6.08903021 266.04042903 6.09196431 268.08167071 6.09057617 270.1237793 C6.10056892 271.86584908 6.10056892 271.86584908 6.11076355 273.64311218 C5.70665992 277.12324382 4.8409234 278.96418327 2.75 281.75 C-1.62305252 284.63223916 -5.05970804 285.55539013 -10.25 284.75 C-16.16162242 281.19738 -20.98665004 276.23498054 -25.75 271.3125 C-31.3579402 265.56655069 -31.3579402 265.56655069 -37.3125 260.1875 C-41.85532697 256.36039194 -45.94510203 252.07897629 -50.11962891 247.86083984 C-53.06048872 244.90106268 -55.99397644 242.00288637 -59.1875 239.3125 C-63.99896362 235.24925535 -68.33176655 230.69173997 -72.75927734 226.22119141 C-76.41830887 222.5402331 -80.12731192 219.02841337 -84.09765625 215.68359375 C-87.92958233 212.24111932 -91.49501916 208.52333598 -95.11743164 204.86303711 C-98.07956982 201.88182682 -101.03716434 198.9642922 -104.25 196.25 C-108.80937735 192.39811224 -112.92246864 188.10187792 -117.1171875 183.86328125 C-120.07940843 180.88199023 -123.03707598 177.96436684 -126.25 175.25 C-130.80124104 171.40498602 -134.91097958 167.11938523 -139.09301758 162.88305664 C-142.2723166 159.67704445 -145.47873862 156.59643979 -148.9375 153.6875 C-153.09335565 150.10118345 -155.33837348 147.11821681 -156 141.5625 C-155.70273626 134.86856095 -150.86080723 131.07964268 -146.25 126.75 C-145.68200684 126.21181641 -145.11401367 125.67363281 -144.52880859 125.11914062 C-141.36424528 122.12940107 -138.1758552 119.16701195 -134.97265625 116.21875 C-131.66626695 113.16175595 -128.47675334 110.01636152 -125.3125 106.8125 C-122.43557039 103.90182342 -119.5583373 101.08428607 -116.4375 98.4375 C-112.49598475 95.08111691 -108.88862238 91.42681813 -105.25 87.75 C-101.10492391 83.56154836 -96.94083632 79.52329275 -92.4375 75.71875 C-89.25179232 72.85161308 -86.26415455 69.79567924 -83.25 66.75 C-75.96895711 59.39288509 -75.96895711 59.39288509 -72.3125 56.3125 C-68.22378849 52.85961404 -64.51265302 49.04922802 -60.75 45.25 C-56.42671345 40.8846888 -52.10323169 36.64386039 -47.40234375 32.68359375 C-43.57425912 29.24457036 -40.0122248 25.53076477 -36.39355469 21.87402344 C-32.76110477 18.21807519 -29.06326845 14.72954566 -25.12109375 11.40625 C-22.02209451 8.66308575 -19.18829642 5.656745 -16.328125 2.66796875 C-11.35008515 -1.92642517 -6.35420962 -2.44392678 0 0 Z " fill="#FEFEFE" transform="translate(250.25,114.25)"/>
</svg>
