<?xml version="1.0" encoding="UTF-8"?>
<svg id="Layer_2" data-name="Layer 2" xmlns="http://www.w3.org/2000/svg" viewBox="0 0 15.99 13.87">
  <defs>
    <style>
      .cls-1 {
        fill: #bf0000;
      }

      .cls-1, .cls-2 {
        stroke-width: 0px;
      }

      .cls-2 {
        fill: #fec9c9;
      }
    </style>
  </defs>
  <g id="Layer_1-2" data-name="Layer 1">
    <g>
      <path class="cls-2" d="M8,12.87c-.46,0-.91-.19-1.25-.53-1.56-1.57-3.11-3.14-4.65-4.73-.88-.92-1.27-2.15-1.05-3.4.21-1.23.97-2.25,2.09-2.81.52-.26,1.07-.39,1.64-.39,1,0,1.96.4,2.69,1.12.12.12.27.27.52.27s.39-.14.51-.25c.8-.77,1.68-1.15,2.61-1.15.4,0,.81.07,1.23.21,1.43.46,2.31,1.5,2.6,3.08.03.17.05.36.04.6-.01,1.06-.37,1.96-1.07,2.68-1.55,1.6-3.12,3.2-4.7,4.79-.33.33-.77.52-1.23.52Z"/>
      <path class="cls-1" d="M11.11,1.5h0c.34,0,.71.06,1.08.18,1.26.41,2,1.29,2.27,2.7.03.14.04.3.03.5-.01.94-.31,1.71-.93,2.34-1.46,1.51-3,3.07-4.69,4.78-.24.24-.55.37-.87.37s-.65-.14-.89-.38c-1.52-1.54-3.1-3.13-4.64-4.73-.77-.8-1.11-1.88-.92-2.97.18-1.07.85-1.96,1.82-2.45.45-.22.92-.34,1.42-.34.87,0,1.7.35,2.34.98.15.14.42.41.87.41s.71-.25.86-.4c.71-.68,1.45-1,2.26-1M11.11.5c-1.08,0-2.07.44-2.95,1.28-.08.08-.13.12-.17.12s-.08-.04-.17-.12c-.84-.83-1.94-1.27-3.04-1.27-.63,0-1.27.14-1.87.44C.27,2.27-.33,5.8,1.75,7.95c1.54,1.59,3.09,3.17,4.65,4.74.45.45,1.02.68,1.6.68s1.14-.22,1.58-.67c1.58-1.59,3.14-3.18,4.7-4.79.81-.84,1.19-1.86,1.21-3.02,0-.24,0-.47-.05-.7-.32-1.71-1.28-2.92-2.94-3.46-.48-.15-.94-.23-1.39-.23h0Z"/>
    </g>
  </g>
</svg>