<?xml version="1.0" encoding="UTF-8"?>
<svg id="Layer_2" data-name="Layer 2" xmlns="http://www.w3.org/2000/svg" viewBox="0 0 14.99 12.87">
  <defs>
    <style>
      .cls-1 {
        fill: #fe0b0b;
      }

      .cls-1, .cls-2 {
        stroke-width: 0px;
      }

      .cls-2 {
        fill: #fe8989;
      }
    </style>
  </defs>
  <g id="Layer_1-2" data-name="Layer 1">
    <g>
      <path class="cls-1" d="M14.99,4.39c-.01,1.16-.4,2.18-1.21,3.02-1.56,1.61-3.12,3.2-4.7,4.79-.89.9-2.29.89-3.18-.01-1.56-1.57-3.11-3.15-4.65-4.74C-.83,5.3-.23,1.77,2.42.45c1.63-.81,3.58-.48,4.91.83.17.17.17.16.34,0C8.91.1,10.37-.3,12,.23c1.66.54,2.62,1.75,2.94,3.46.04.23.05.46.05.7ZM10.56,1.51c-.45,0-.8.3-.81.72-.01.44.31.77.79.78.19,0,.38.04.56.13.57.27.87.72.9,1.36.02.42.3.74.7.77.4.03.72-.24.8-.66.02-.13,0-.26-.01-.38-.12-1.42-1.3-2.65-2.92-2.71Z"/>
      <path class="cls-2" d="M10.56,1.51c1.61.06,2.79,1.29,2.92,2.71.01.13.04.25.01.38-.07.42-.4.69-.8.66-.39-.03-.68-.35-.7-.77-.03-.63-.33-1.08-.9-1.36-.18-.08-.37-.12-.56-.13-.47-.02-.8-.34-.79-.78.01-.42.36-.73.81-.72Z"/>
    </g>
  </g>
</svg>