<?xml version="1.0" encoding="utf-8"?>
<!-- Generator: Adobe Illustrator 28.2.0, SVG Export Plug-In . SVG Version: 6.00 Build 0)  -->
<svg version="1.1" id="Layer_2_00000112632970329368384450000011834462449413844916_"
	 xmlns="http://www.w3.org/2000/svg" xmlns:xlink="http://www.w3.org/1999/xlink" x="0px" y="0px" viewBox="0 0 761 185.2"
	 style="enable-background:new 0 0 761 185.2;" xml:space="preserve">
<style type="text/css">
	.st0{fill:#1414F7;}
	.st1{font-family:'BeachSound';}
	.st2{font-size:100px;}
	.st3{letter-spacing:2;}
	.st4{fill:none;stroke:url(#SVGID_1_);stroke-width:4;stroke-miterlimit:10;}
	.st5{fill:none;stroke:url(#SVGID_00000020383802996124213650000012999020059720930190_);stroke-width:4;stroke-miterlimit:10;}
	.st6{fill:none;stroke:url(#SVGID_00000047756509893951460070000017209290606123773596_);stroke-width:4;stroke-miterlimit:10;}
	.st7{fill:none;stroke:url(#SVGID_00000089569671606063764140000017308819338140524183_);stroke-width:4;stroke-miterlimit:10;}
	.st8{fill:none;stroke:url(#SVGID_00000060738261906551941100000001360901147322184327_);stroke-width:4;stroke-miterlimit:10;}
	.st9{fill:none;stroke:url(#SVGID_00000066514192188947308100000016147560616088604338_);stroke-width:4;stroke-miterlimit:10;}
	.st10{fill:none;stroke:url(#SVGID_00000096752744441238055160000000571598546764678836_);stroke-width:4;stroke-miterlimit:10;}
	.st11{fill:none;stroke:url(#SVGID_00000132085684267112242490000016411293842034384512_);stroke-width:4;stroke-miterlimit:10;}
	.st12{fill:none;stroke:url(#SVGID_00000096036398905270105150000016518020872811783333_);stroke-width:4;stroke-miterlimit:10;}
	.st13{fill:none;stroke:url(#SVGID_00000025410560107478253480000006930274457311782827_);stroke-width:4;stroke-miterlimit:10;}
	.st14{fill:none;stroke:url(#SVGID_00000075123418917945528070000002610351403873701811_);stroke-width:2;stroke-miterlimit:10;}
	.st15{fill:none;stroke:url(#SVGID_00000080885181843874732540000012643732362861667977_);stroke-width:2;stroke-miterlimit:10;}
	.st16{fill:none;stroke:url(#SVGID_00000177478738214540599260000013726494346221360521_);stroke-width:2;stroke-miterlimit:10;}
	.st17{fill:none;stroke:url(#SVGID_00000087376638537918578430000009786840029858020539_);stroke-width:2;stroke-miterlimit:10;}
	.st18{fill:none;stroke:url(#SVGID_00000057855365924581452940000011701614245825721775_);stroke-width:2;stroke-miterlimit:10;}
	.st19{fill:none;stroke:url(#SVGID_00000052819628464930797950000006409162869158729617_);stroke-width:2;stroke-miterlimit:10;}
	.st20{fill:none;stroke:url(#SVGID_00000083778353307119560020000007684359480292542864_);stroke-width:2;stroke-miterlimit:10;}
	.st21{fill:none;stroke:url(#SVGID_00000017475617517955878030000010027130018954308525_);stroke-width:2;stroke-miterlimit:10;}
	.st22{fill:none;stroke:url(#SVGID_00000044176006280575993580000012663666509824746652_);stroke-width:2;stroke-miterlimit:10;}
	.st23{fill:none;stroke:url(#SVGID_00000063613314888551415160000016940893101173897355_);stroke-width:2;stroke-miterlimit:10;}
</style>
<g id="Layer_1-2">
	<g>
		
			<image style="overflow:visible;opacity:0.75;enable-background:new    ;" width="724" height="165" xlink:href="5ECF2A90.png"  transform="matrix(0.9939 0 0 0.9939 20.8939 21.2)">
		</image>
		<g>
			
				<image style="overflow:visible;enable-background:new    ;" width="707" height="148" xlink:href="5ECF2A91.png"  transform="matrix(0.9932 0 0 0.9932 29.7285 27.84)">
			</image>
			<g>
				<text transform="matrix(1 0 0 1 34.61 111.08)" class="st0 st1 st2 st3">MAGPIE A</text>
				<text transform="matrix(1 0 0 1 525.4 111.08)" class="st0 st1 st2 st3">R</text>
				<text transform="matrix(1 0 0 1 594.7 111.08)" class="st0 st1 st2 st3">TS</text>
				<image style="overflow:visible;enable-background:new    ;" width="761" height="149" xlink:href="5ECF2A97.png" >
				</image>
				<g>
					
						<linearGradient id="SVGID_1_" gradientUnits="userSpaceOnUse" x1="75.2551" y1="75.32" x2="75.2551" y2="151.73" gradientTransform="matrix(1 0 0 -1 0 188)">
						<stop  offset="1.000000e-02" style="stop-color:#0CB0FF"/>
						<stop  offset="1" style="stop-color:#B4F9FF"/>
					</linearGradient>
					<path class="st4" d="M79.6,49.9c5.6-8.9,11.9-13.4,18.9-13.4h16.4v62.1c0,0.4,0.1,0.9,0.1,1.3c0,4.8-1.6,8-2.9,11.2H94.6
						c2.5-5.4,3.8-10.4,3.9-14.9V54.4c-3,1.9-7.3,6.7-8.8,9.9l-2.1,4.6c0,8.3-2.3,13.8-7.6,17c-1.8,1.1-3.8,1.4-6,1.4
						s-4.3-0.3-6.6-0.8c2.5-2.3,3.5-5.2,3.5-8.3c0-6.6-4.4-13.9-7.6-17.4c-2.2-2.4-4.4-3.8-6.4-4.2v42c0,0.4,0.1,0.9,0.1,1.3
						c0,4.8-1.6,8-2.9,11.2H36.6c2.5-5.4,3.8-10.4,3.9-14.9V36.5h16.4C66.9,36.5,74.8,44,79.6,49.9L79.6,49.9z"/>
					
						<linearGradient id="SVGID_00000178163411393577795870000004031928582889278594_" gradientUnits="userSpaceOnUse" x1="155.71" y1="75.32" x2="155.71" y2="151.73" gradientTransform="matrix(1 0 0 -1 0 188)">
						<stop  offset="1.000000e-02" style="stop-color:#0CB0FF"/>
						<stop  offset="1" style="stop-color:#B4F9FF"/>
					</linearGradient>
					
						<path style="fill:none;stroke:url(#SVGID_00000178163411393577795870000004031928582889278594_);stroke-width:4;stroke-miterlimit:10;" d="
						M155.6,92.3c-4.2,0-8.6,1.1-13.2,3.4c-1.3,2.6-2.5,6.6-2.5,10.4c0,1.8,0.3,3.5,1,5h-17.8c-0.7-1.4-1-3.3-1-5.4
						c0-3.5,0.9-7.8,2.7-13.1L143,36.5h25.4C180,72.3,186.1,91,186.6,92.6c1.8,5.3,2.7,9.6,2.7,13.1c0,2.1-0.3,4-1,5.4h-17.8
						c0.6-1.4,0.9-3.1,0.9-4.8c0-3.8-1.2-8.1-2.4-10.6c-4.7-2.3-9.1-3.4-13.2-3.4H155.6L155.6,92.3z M155.8,77.2
						c2.7,0,5.3,0.4,8,1.3l-8.1-24.8l-8.2,24.8c2.7-0.9,5.5-1.3,8.2-1.3H155.8z"/>
					
						<linearGradient id="SVGID_00000157293920764718092330000013168692911554705588_" gradientUnits="userSpaceOnUse" x1="230.8317" y1="75.32" x2="230.8317" y2="151.73" gradientTransform="matrix(1 0 0 -1 0 188)">
						<stop  offset="1.000000e-02" style="stop-color:#0CB0FF"/>
						<stop  offset="1" style="stop-color:#B4F9FF"/>
					</linearGradient>
					
						<path style="fill:none;stroke:url(#SVGID_00000157293920764718092330000013168692911554705588_);stroke-width:4;stroke-miterlimit:10;" d="
						M244.4,81.9c-5.3,0-10.4,2-12.3,5.6c-2.2-3-3.1-6-3.1-8.7c0-7.2,6.6-12.8,15.1-12.8c1.6,0,3.2,0.2,4.9,0.6
						c3.2,0.8,7.6,2.8,11.4,2.8c1,0,2.1-0.1,3-0.5v28.6c0.1,6,1.1,10.3,3.1,12.8c-1.7,0.5-3.4,0.7-4.8,0.7c-4.6,0-7.7-2.5-9.7-5.8
						c-4.8,2.8-11.3,5.9-19.9,5.9c-24,0-38.4-14.5-38.4-38.3s16.7-36.4,40.2-36.4c8.6,0,17.5,1.6,21.3,6.1l-5.6,15.8
						c-3-4.1-8.8-6.1-14.8-6.1s-11.9,1.9-15.4,5.7c-3.8,4.3-6,7.9-6,14.9c0,12.3,6.5,22.1,18.8,22.1c8.1,0,13.4-3,13.4-11.2v-1.8
						H244.4z"/>
					
						<linearGradient id="SVGID_00000173121766100816775590000003858612970126574491_" gradientUnits="userSpaceOnUse" x1="301.4783" y1="75.32" x2="301.4783" y2="151.73" gradientTransform="matrix(1 0 0 -1 0 188)">
						<stop  offset="1.000000e-02" style="stop-color:#0CB0FF"/>
						<stop  offset="1" style="stop-color:#B4F9FF"/>
					</linearGradient>
					
						<path style="fill:none;stroke:url(#SVGID_00000173121766100816775590000003858612970126574491_);stroke-width:4;stroke-miterlimit:10;" d="
						M271.7,111.1c2.7-5.3,4.1-10.3,4.1-14.8V36.5h33c12.9,0,20.8,7.6,23.2,18.1c0.3,1.4,0.5,2.6,0.5,3.7c0,10.1-4.8,17.4-12.6,20
						c-9.3,3.6-21.6,5.8-26.2,13.9c-0.8,1.4-1.2,2.9-1.2,4.5v14.4H271.7z M292.5,73.8c4.4-3.8,13.3-4.4,19-6.7c2.5-1,3.6-3.4,3.6-6
						c0-3.9-2.5-8.1-6.6-8.1h-16V73.8z"/>
					
						<linearGradient id="SVGID_00000023267042855162481540000011313547527466692765_" gradientUnits="userSpaceOnUse" x1="347.3056" y1="75.32" x2="347.3056" y2="151.73" gradientTransform="matrix(1 0 0 -1 0 188)">
						<stop  offset="1.000000e-02" style="stop-color:#0CB0FF"/>
						<stop  offset="1" style="stop-color:#B4F9FF"/>
					</linearGradient>
					
						<path style="fill:none;stroke:url(#SVGID_00000023267042855162481540000011313547527466692765_);stroke-width:4;stroke-miterlimit:10;" d="
						M341.6,36.4h16.6c0,20-0.1,35.1-0.1,45.5s0.1,16.1,0.1,16.9v0.6c0,3.7-1.1,8.2-2.3,10.3l-0.8,1.4h-17.5
						c2.6-5.3,3.9-10.3,4-14.9L341.6,36.4L341.6,36.4z"/>
					
						<linearGradient id="SVGID_00000052785710258551835430000006591341454554581657_" gradientUnits="userSpaceOnUse" x1="396.492" y1="75.32" x2="396.492" y2="151.73" gradientTransform="matrix(1 0 0 -1 0 188)">
						<stop  offset="1.000000e-02" style="stop-color:#0CB0FF"/>
						<stop  offset="1" style="stop-color:#B4F9FF"/>
					</linearGradient>
					
						<path style="fill:none;stroke:url(#SVGID_00000052785710258551835430000006591341454554581657_);stroke-width:4;stroke-miterlimit:10;" d="
						M422,88.9l5.7,17.8c-2.9,2.9-8.6,4.4-16.9,4.4h-0.6c-1.3,0-9,0-23.2-0.1v0.1l-16.8-0.1h-3.9c2-3.8,3.8-7.7,3.9-11.7
						c0.2-7,0.2-14,0.2-21c0-14-0.2-28-0.2-42h48v18.8c-2-2.3-6.4-3.5-13-3.7H387v17.1c2.6-4,8.2-6.5,13.6-6.5
						c3.7,0,7.3,1.1,9.9,3.8c1.7,1.7,2.5,3.8,2.5,6.2c0,2-0.6,4.3-1.8,6.8c-2.7-1.4-5.4-2.1-7.9-2.1c-8.6,0-15.4,7.3-16.2,16.5h20.6
						C412.9,93.1,419.5,91.4,422,88.9z"/>
					
						<linearGradient id="SVGID_00000106145471556718671830000002721315773028388273_" gradientUnits="userSpaceOnUse" x1="488.61" y1="75.32" x2="488.61" y2="151.73" gradientTransform="matrix(1 0 0 -1 0 188)">
						<stop  offset="1.000000e-02" style="stop-color:#0CB0FF"/>
						<stop  offset="1" style="stop-color:#B4F9FF"/>
					</linearGradient>
					
						<path style="fill:none;stroke:url(#SVGID_00000106145471556718671830000002721315773028388273_);stroke-width:4;stroke-miterlimit:10;" d="
						M488.5,92.3c-4.2,0-8.6,1.1-13.2,3.4c-1.3,2.6-2.5,6.6-2.5,10.4c0,1.8,0.3,3.5,1,5H456c-0.7-1.4-1-3.3-1-5.4
						c0-3.5,0.9-7.8,2.7-13.1l18.2-56.1h25.4C512.9,72.3,519,91,519.5,92.6c1.8,5.3,2.7,9.6,2.7,13.1c0,2.1-0.3,4-1,5.4h-17.8
						c0.6-1.4,0.9-3.1,0.9-4.8c0-3.8-1.2-8.1-2.4-10.6c-4.7-2.3-9.1-3.4-13.2-3.4H488.5z M488.7,77.2c2.7,0,5.3,0.4,8,1.3l-8.1-24.8
						l-8.2,24.8c2.7-0.9,5.5-1.3,8.2-1.3H488.7z"/>
					
						<linearGradient id="SVGID_00000006699040423116354930000007977401010183481764_" gradientUnits="userSpaceOnUse" x1="560.6051" y1="75.32" x2="560.6051" y2="151.73" gradientTransform="matrix(1 0 0 -1 0 188)">
						<stop  offset="1.000000e-02" style="stop-color:#0CB0FF"/>
						<stop  offset="1" style="stop-color:#B4F9FF"/>
					</linearGradient>
					
						<path style="fill:none;stroke:url(#SVGID_00000006699040423116354930000007977401010183481764_);stroke-width:4;stroke-miterlimit:10;" d="
						M585.5,94c2.3,0,4.7-0.7,7.3-2.1c1.6,3.2,2.3,6.3,2.3,9c0,7.2-5.2,11.8-12.7,11.8c-1.1,0-2.3-0.1-3.5-0.3
						c-6.8-1.3-12.4-5.3-16.6-12.2c0-0.1,0-0.2-0.1-0.3l-8.6-12.4c-3.7,2.6-5.5,5.6-5.5,9v14.6h-20.8c2.7-5.5,4.1-10.4,4.1-14.8
						V36.5h32.8c12.5,0,20.7,7.4,23.2,17.2c0.4,1.7,0.7,3.3,0.7,4.6c0,10.1-4.8,17.4-12.6,20c-0.2,0.1-2.6,1-7.4,2.6
						C572.1,86.8,577.7,94,585.5,94L585.5,94z M548,73.8c1.7-1.3,5.2-2.7,10.6-4.2s8.2-2.3,8.5-2.5c2.4-1.1,3.6-3.6,3.6-6.2
						c0-3.9-2.5-7.9-6.6-7.9H548V73.8z"/>
					
						<linearGradient id="SVGID_00000021842336970421811980000009577929619998842290_" gradientUnits="userSpaceOnUse" x1="626.81" y1="75.32" x2="626.81" y2="151.73" gradientTransform="matrix(1 0 0 -1 0 188)">
						<stop  offset="1.000000e-02" style="stop-color:#0CB0FF"/>
						<stop  offset="1" style="stop-color:#B4F9FF"/>
					</linearGradient>
					
						<path style="fill:none;stroke:url(#SVGID_00000021842336970421811980000009577929619998842290_);stroke-width:4;stroke-miterlimit:10;" d="
						M631.7,111.1H614c2.6-5.4,3.9-10.5,4-15.1V54.4h-8.5c-6.6,0.2-11,1.5-13,3.8V36.5h60.6v21.7c-2-2.3-6.3-3.6-12.9-3.8h-9.6v44.2
						C634.6,104,633.4,107.7,631.7,111.1L631.7,111.1z"/>
					
						<linearGradient id="SVGID_00000026125407450279415300000013694752803557131691_" gradientUnits="userSpaceOnUse" x1="694.0599" y1="75.32" x2="694.0599" y2="151.73" gradientTransform="matrix(1 0 0 -1 0 188)">
						<stop  offset="1.000000e-02" style="stop-color:#0CB0FF"/>
						<stop  offset="1" style="stop-color:#B4F9FF"/>
					</linearGradient>
					
						<path style="fill:none;stroke:url(#SVGID_00000026125407450279415300000013694752803557131691_);stroke-width:4;stroke-miterlimit:10;" d="
						M706.4,88.9c0-5.3-7.4-7.2-12.9-7.7c-12.4-1.2-24.1-5.3-28.4-15.2c-0.9-2.2-1.4-4.5-1.4-6.7c0-6.2,3.1-12.1,6.5-14.9
						c5.9-4.8,14.6-7.7,23.8-7.7c4.5,0,9.1,0.6,13.7,2.1c5.3,1.7,9.1,3.5,11.5,5.3c1.8,1.4,2.6,2.3,2.6,2.8c0,0.2-0.1,0.2-0.3,0.3
						l-5.4,15.9l-0.1-0.6c-3.3-6.6-14-10.9-24-10.9h-0.8c-4,0-9.3,1.5-9.3,5.4c0.1,3.3,3.2,5.3,9.6,5.9h0.5
						c18.7,2,29.3,7.8,31.8,17.2c0.5,1.8,0.6,3.4,0.6,5.1c0,7.4-3.9,14.1-7.7,18c-4.8,4.9-13.1,7.7-22.7,7.9
						c-13.8,0-27-4.5-29.8-16.2c-0.2-1-0.3-2-0.3-2.9c0-6.2,5-10.6,11.6-10.6c0.5,0,0.9,0.1,1.4,0.1c-0.5,1.4-0.7,2.7-0.7,3.9
						c0,7.5,9.7,10,18.2,10.3C698.6,95.7,706.1,92.8,706.4,88.9L706.4,88.9z"/>
				</g>
				<g>
					
						<linearGradient id="SVGID_00000154394971655709912030000007560181624528944525_" gradientUnits="userSpaceOnUse" x1="75.5375" y1="75.32" x2="75.5375" y2="151.73" gradientTransform="matrix(1 0 0 -1 0 188)">
						<stop  offset="1.000000e-02" style="stop-color:#0C41FF"/>
						<stop  offset="0.99" style="stop-color:#0505E0"/>
					</linearGradient>
					
						<path style="fill:none;stroke:url(#SVGID_00000154394971655709912030000007560181624528944525_);stroke-width:2;stroke-miterlimit:10;" d="
						M79.6,49.9c5.6-8.9,11.9-13.4,18.9-13.4h16.4v62.1c0,0.4,0.1,0.9,0.1,1.3c0,4.8-1.6,8-2.9,11.2H94.6c2.5-5.4,3.8-10.4,3.9-14.9
						V54.4c-3,1.9-7.3,6.7-8.8,9.9l-2.1,4.6c0,8.3-2.3,13.8-7.6,17c-1.8,1.1-3.8,1.4-6,1.4s-4.3-0.3-6.6-0.8
						c2.5-2.3,3.5-5.2,3.5-8.3c0-6.6-4.4-13.9-7.6-17.4c-2.2-2.4-4.4-3.8-6.4-4.2v42c0,0.4,0.1,0.9,0.1,1.3c0,4.8-1.6,8-2.9,11.2
						H36.6c2.5-5.4,3.8-10.4,3.9-14.9V36.5h16.4C66.9,36.5,74.8,44,79.6,49.9L79.6,49.9z"/>
					
						<linearGradient id="SVGID_00000129902078112866842420000006214975682959200643_" gradientUnits="userSpaceOnUse" x1="155.71" y1="75.32" x2="155.71" y2="151.73" gradientTransform="matrix(1 0 0 -1 0 188)">
						<stop  offset="1.000000e-02" style="stop-color:#0C41FF"/>
						<stop  offset="0.99" style="stop-color:#0505E0"/>
					</linearGradient>
					
						<path style="fill:none;stroke:url(#SVGID_00000129902078112866842420000006214975682959200643_);stroke-width:2;stroke-miterlimit:10;" d="
						M155.6,92.3c-4.2,0-8.6,1.1-13.2,3.4c-1.3,2.6-2.5,6.6-2.5,10.4c0,1.8,0.3,3.5,1,5h-17.8c-0.7-1.4-1-3.3-1-5.4
						c0-3.5,0.9-7.8,2.7-13.1L143,36.5h25.4C180,72.3,186.1,91,186.6,92.6c1.8,5.3,2.7,9.6,2.7,13.1c0,2.1-0.3,4-1,5.4h-17.8
						c0.6-1.4,0.9-3.1,0.9-4.8c0-3.8-1.2-8.1-2.4-10.6c-4.7-2.3-9.1-3.4-13.2-3.4H155.6L155.6,92.3z M155.8,77.2
						c2.7,0,5.3,0.4,8,1.3l-8.1-24.8l-8.2,24.8c2.7-0.9,5.5-1.3,8.2-1.3H155.8z"/>
					
						<linearGradient id="SVGID_00000129199170295364167140000000198175693605616279_" gradientUnits="userSpaceOnUse" x1="230.4759" y1="75.32" x2="230.4759" y2="151.73" gradientTransform="matrix(1 0 0 -1 0 188)">
						<stop  offset="1.000000e-02" style="stop-color:#0C41FF"/>
						<stop  offset="0.99" style="stop-color:#0505E0"/>
					</linearGradient>
					
						<path style="fill:none;stroke:url(#SVGID_00000129199170295364167140000000198175693605616279_);stroke-width:2;stroke-miterlimit:10;" d="
						M244.4,81.9c-5.3,0-10.4,2-12.3,5.6c-2.2-3-3.1-6-3.1-8.7c0-7.2,6.6-12.8,15.1-12.8c1.6,0,3.2,0.2,4.9,0.6
						c3.2,0.8,7.6,2.8,11.4,2.8c1,0,2.1-0.1,3-0.5v28.6c0.1,6,1.1,10.3,3.1,12.8c-1.7,0.5-3.4,0.7-4.8,0.7c-4.6,0-7.7-2.5-9.7-5.8
						c-4.8,2.8-11.3,5.9-19.9,5.9c-24,0-38.4-14.5-38.4-38.3s16.7-36.4,40.2-36.4c8.6,0,17.5,1.6,21.3,6.1l-5.6,15.8
						c-3-4.1-8.8-6.1-14.8-6.1s-11.9,1.9-15.4,5.7c-3.8,4.3-6,7.9-6,14.9c0,12.3,6.5,22.1,18.8,22.1c8.1,0,13.4-3,13.4-11.2v-1.8
						H244.4z"/>
					
						<linearGradient id="SVGID_00000168089567308046461210000008671570436082567861_" gradientUnits="userSpaceOnUse" x1="301.7941" y1="75.32" x2="301.7941" y2="151.73" gradientTransform="matrix(1 0 0 -1 0 188)">
						<stop  offset="1.000000e-02" style="stop-color:#0C41FF"/>
						<stop  offset="0.99" style="stop-color:#0505E0"/>
					</linearGradient>
					
						<path style="fill:none;stroke:url(#SVGID_00000168089567308046461210000008671570436082567861_);stroke-width:2;stroke-miterlimit:10;" d="
						M271.7,111.1c2.7-5.3,4.1-10.3,4.1-14.8V36.5h33c12.9,0,20.8,7.6,23.2,18.1c0.3,1.4,0.5,2.6,0.5,3.7c0,10.1-4.8,17.4-12.6,20
						c-9.3,3.6-21.6,5.8-26.2,13.9c-0.8,1.4-1.2,2.9-1.2,4.5v14.4H271.7z M292.5,73.8c4.4-3.8,13.3-4.4,19-6.7c2.5-1,3.6-3.4,3.6-6
						c0-3.9-2.5-8.1-6.6-8.1h-16V73.8z"/>
					
						<linearGradient id="SVGID_00000085227799094765591240000000958611374938165933_" gradientUnits="userSpaceOnUse" x1="347.6078" y1="75.32" x2="347.6078" y2="151.73" gradientTransform="matrix(1 0 0 -1 0 188)">
						<stop  offset="1.000000e-02" style="stop-color:#0C41FF"/>
						<stop  offset="0.99" style="stop-color:#0505E0"/>
					</linearGradient>
					
						<path style="fill:none;stroke:url(#SVGID_00000085227799094765591240000000958611374938165933_);stroke-width:2;stroke-miterlimit:10;" d="
						M341.6,36.4h16.6c0,20-0.1,35.1-0.1,45.5s0.1,16.1,0.1,16.9v0.6c0,3.7-1.1,8.2-2.3,10.3l-0.8,1.4h-17.5
						c2.6-5.3,3.9-10.3,4-14.9L341.6,36.4L341.6,36.4z"/>
					
						<linearGradient id="SVGID_00000118372839534623050180000000506587185620388004_" gradientUnits="userSpaceOnUse" x1="396.751" y1="75.32" x2="396.751" y2="151.73" gradientTransform="matrix(1 0 0 -1 0 188)">
						<stop  offset="1.000000e-02" style="stop-color:#0C41FF"/>
						<stop  offset="0.99" style="stop-color:#0505E0"/>
					</linearGradient>
					
						<path style="fill:none;stroke:url(#SVGID_00000118372839534623050180000000506587185620388004_);stroke-width:2;stroke-miterlimit:10;" d="
						M422,88.9l5.7,17.8c-2.9,2.9-8.6,4.4-16.9,4.4h-0.6c-1.3,0-9,0-23.2-0.1v0.1l-16.8-0.1h-3.9c2-3.8,3.8-7.7,3.9-11.7
						c0.2-7,0.2-14,0.2-21c0-14-0.2-28-0.2-42h48v18.8c-2-2.3-6.4-3.5-13-3.7H387v17.1c2.6-4,8.2-6.5,13.6-6.5
						c3.7,0,7.3,1.1,9.9,3.8c1.7,1.7,2.5,3.8,2.5,6.2c0,2-0.6,4.3-1.8,6.8c-2.7-1.4-5.4-2.1-7.9-2.1c-8.6,0-15.4,7.3-16.2,16.5h20.6
						C412.9,93.1,419.5,91.4,422,88.9z"/>
					
						<linearGradient id="SVGID_00000003081725222080739580000010096974510525078975_" gradientUnits="userSpaceOnUse" x1="488.61" y1="75.32" x2="488.61" y2="151.73" gradientTransform="matrix(1 0 0 -1 0 188)">
						<stop  offset="1.000000e-02" style="stop-color:#0C41FF"/>
						<stop  offset="0.99" style="stop-color:#0505E0"/>
					</linearGradient>
					
						<path style="fill:none;stroke:url(#SVGID_00000003081725222080739580000010096974510525078975_);stroke-width:2;stroke-miterlimit:10;" d="
						M488.5,92.3c-4.2,0-8.6,1.1-13.2,3.4c-1.3,2.6-2.5,6.6-2.5,10.4c0,1.8,0.3,3.5,1,5H456c-0.7-1.4-1-3.3-1-5.4
						c0-3.5,0.9-7.8,2.7-13.1l18.2-56.1h25.4C512.9,72.3,519,91,519.5,92.6c1.8,5.3,2.7,9.6,2.7,13.1c0,2.1-0.3,4-1,5.4h-17.8
						c0.6-1.4,0.9-3.1,0.9-4.8c0-3.8-1.2-8.1-2.4-10.6c-4.7-2.3-9.1-3.4-13.2-3.4H488.5z M488.7,77.2c2.7,0,5.3,0.4,8,1.3l-8.1-24.8
						l-8.2,24.8c2.7-0.9,5.5-1.3,8.2-1.3H488.7z"/>
					
						<linearGradient id="SVGID_00000026145399721243158390000003564079027267898253_" gradientUnits="userSpaceOnUse" x1="560.9076" y1="75.32" x2="560.9076" y2="151.73" gradientTransform="matrix(1 0 0 -1 0 188)">
						<stop  offset="1.000000e-02" style="stop-color:#0C41FF"/>
						<stop  offset="0.99" style="stop-color:#0505E0"/>
					</linearGradient>
					
						<path style="fill:none;stroke:url(#SVGID_00000026145399721243158390000003564079027267898253_);stroke-width:2;stroke-miterlimit:10;" d="
						M585.5,94c2.3,0,4.7-0.7,7.3-2.1c1.6,3.2,2.3,6.3,2.3,9c0,7.2-5.2,11.8-12.7,11.8c-1.1,0-2.3-0.1-3.5-0.3
						c-6.8-1.3-12.4-5.3-16.6-12.2c0-0.1,0-0.2-0.1-0.3l-8.6-12.4c-3.7,2.6-5.5,5.6-5.5,9v14.6h-20.8c2.7-5.5,4.1-10.4,4.1-14.8
						V36.5h32.8c12.5,0,20.7,7.4,23.2,17.2c0.4,1.7,0.7,3.3,0.7,4.6c0,10.1-4.8,17.4-12.6,20c-0.2,0.1-2.6,1-7.4,2.6
						C572.1,86.8,577.7,94,585.5,94L585.5,94z M548,73.8c1.7-1.3,5.2-2.7,10.6-4.2s8.2-2.3,8.5-2.5c2.4-1.1,3.6-3.6,3.6-6.2
						c0-3.9-2.5-7.9-6.6-7.9H548V73.8z"/>
					
						<linearGradient id="SVGID_00000067917529033422661810000004359312922285917112_" gradientUnits="userSpaceOnUse" x1="626.81" y1="75.32" x2="626.81" y2="151.73" gradientTransform="matrix(1 0 0 -1 0 188)">
						<stop  offset="1.000000e-02" style="stop-color:#0C41FF"/>
						<stop  offset="0.99" style="stop-color:#0505E0"/>
					</linearGradient>
					
						<path style="fill:none;stroke:url(#SVGID_00000067917529033422661810000004359312922285917112_);stroke-width:2;stroke-miterlimit:10;" d="
						M631.7,111.1H614c2.6-5.4,3.9-10.5,4-15.1V54.4h-8.5c-6.6,0.2-11,1.5-13,3.8V36.5h60.6v21.7c-2-2.3-6.3-3.6-12.9-3.8h-9.6v44.2
						C634.6,104,633.4,107.7,631.7,111.1L631.7,111.1z"/>
					
						<linearGradient id="SVGID_00000125567642977168905790000017404801506768899763_" gradientUnits="userSpaceOnUse" x1="694.0599" y1="75.32" x2="694.0599" y2="151.72" gradientTransform="matrix(1 0 0 -1 0 188)">
						<stop  offset="1.000000e-02" style="stop-color:#0C41FF"/>
						<stop  offset="0.99" style="stop-color:#0505E0"/>
					</linearGradient>
					
						<path style="fill:none;stroke:url(#SVGID_00000125567642977168905790000017404801506768899763_);stroke-width:2;stroke-miterlimit:10;" d="
						M706.4,88.9c0-5.3-7.4-7.2-12.9-7.7c-12.4-1.2-24.1-5.3-28.4-15.2c-0.9-2.2-1.4-4.5-1.4-6.7c0-6.2,3.1-12.1,6.5-14.9
						c5.9-4.8,14.6-7.7,23.8-7.7c4.5,0,9.1,0.6,13.7,2.1c5.3,1.7,9.1,3.5,11.5,5.3c1.8,1.4,2.6,2.3,2.6,2.8c0,0.2-0.1,0.2-0.3,0.3
						l-5.4,15.9l-0.1-0.6c-3.3-6.6-14-10.9-24-10.9h-0.8c-4,0-9.3,1.5-9.3,5.4c0.1,3.3,3.2,5.3,9.6,5.9h0.5
						c18.7,2,29.3,7.8,31.8,17.2c0.5,1.8,0.6,3.4,0.6,5.1c0,7.4-3.9,14.1-7.7,18c-4.8,4.9-13.1,7.7-22.7,7.9
						c-13.8,0-27-4.5-29.8-16.2c-0.2-1-0.3-2-0.3-2.9c0-6.2,5-10.6,11.6-10.6c0.5,0,0.9,0.1,1.4,0.1c-0.5,1.4-0.7,2.7-0.7,3.9
						c0,7.5,9.7,10,18.2,10.3C698.6,95.7,706.1,92.8,706.4,88.9L706.4,88.9z"/>
				</g>
			</g>
		</g>
	</g>
</g>
</svg>
